<svg width="5020" height="1553" viewBox="0 0 5020 1553" fill="none" xmlns="http://www.w3.org/2000/svg">
<path fill-rule="evenodd" clip-rule="evenodd" d="M633.861 245.082C602.215 245.082 566.049 245.082 534.404 245.082C493.716 245.082 448.508 245.081 407.821 249.602C394.259 249.602 385.217 245.081 376.176 236.04C367.134 226.998 362.613 213.435 362.613 204.394C367.134 154.665 371.655 104.936 376.176 50.6869C376.176 28.0829 394.259 14.5208 416.863 10C493.717 10 575.091 10 651.944 10C674.548 10 692.632 28.0829 692.632 50.6869C697.152 95.8948 701.673 141.103 706.194 181.79C710.715 222.477 742.36 254.123 783.047 258.644C846.339 263.165 918.671 272.206 995.525 285.769C1013.61 290.29 1027.17 303.851 1031.69 321.935C1045.25 398.788 1054.3 480.163 1063.34 557.017C1063.34 570.579 1058.82 584.141 1049.77 593.182C1040.73 602.224 1027.17 606.746 1013.61 606.746C932.234 597.704 846.338 593.182 769.485 593.182C746.881 593.182 728.798 575.099 728.798 552.495C724.277 480.163 724.277 407.831 719.756 335.498C715.235 281.248 679.069 245.082 633.861 245.082Z" fill="black"/>
<path fill-rule="evenodd" clip-rule="evenodd" d="M349.043 511.816C353.564 439.484 353.563 371.671 358.084 294.817C358.084 281.255 353.564 272.214 344.522 263.173C335.481 254.131 321.918 249.609 312.876 249.609C240.544 254.13 163.69 263.172 82.3158 276.734C64.2327 281.255 50.6701 294.818 46.1493 312.902C32.5869 389.755 23.5455 471.129 14.5039 547.982C14.5039 561.545 19.0248 575.108 28.0664 584.149C37.108 593.191 50.6702 597.711 64.2326 597.711C136.565 593.19 208.898 588.67 281.231 584.149C299.314 584.149 317.397 588.67 330.96 602.232C344.522 615.795 349.043 629.357 349.043 647.44C349.043 733.335 349.043 819.23 349.043 905.125C349.043 941.291 376.168 968.417 412.334 968.417C457.542 968.417 498.229 968.417 543.437 968.417C584.124 968.417 624.811 968.417 670.019 968.417C688.102 968.417 706.186 972.938 715.227 986.5C728.79 1000.06 733.31 1013.62 733.31 1031.71C728.79 1104.04 728.789 1171.85 724.269 1248.71C724.269 1262.27 728.79 1271.31 737.831 1280.35C746.873 1289.39 760.435 1293.91 769.477 1293.91C841.809 1289.39 918.663 1280.35 1000.04 1266.79C1018.12 1262.27 1031.68 1248.71 1036.2 1230.62C1049.77 1153.77 1058.81 1072.39 1067.85 995.541C1067.85 981.978 1063.33 968.416 1054.29 959.375C1045.25 950.333 1031.68 945.813 1018.12 945.813C945.788 950.334 873.455 954.854 801.122 959.375C783.039 959.375 764.956 954.854 751.394 941.292C737.831 927.73 733.31 914.167 733.31 896.084C733.31 810.189 733.31 724.293 733.31 638.398C733.31 602.232 706.186 575.107 670.019 575.107C624.811 575.107 584.124 575.107 538.916 575.107C498.229 575.107 457.542 575.107 412.334 575.107C394.251 575.107 376.168 570.587 367.126 557.024C353.564 547.983 344.522 529.9 349.043 511.816Z" fill="black"/>
<path fill-rule="evenodd" clip-rule="evenodd" d="M439.476 1302.93C471.121 1302.93 507.287 1307.45 538.933 1307.45C579.62 1307.45 624.828 1307.45 665.515 1302.93C679.078 1302.93 688.119 1307.45 697.161 1316.49C706.202 1325.53 710.723 1339.09 710.723 1348.13C706.203 1397.86 701.682 1447.59 697.161 1501.84C697.161 1524.44 679.078 1538.01 656.474 1542.53C579.62 1542.53 502.767 1542.53 421.392 1542.53C398.788 1542.53 380.705 1524.44 380.705 1501.84C376.184 1456.63 371.664 1411.42 367.143 1370.74C362.622 1330.05 330.976 1298.4 290.289 1293.88C226.998 1289.36 154.665 1280.32 77.8119 1266.76C59.7288 1262.24 46.1662 1248.68 41.6454 1230.59C28.083 1153.74 19.0416 1072.36 10 995.511C10 981.948 14.5206 968.387 23.5622 959.345C32.6038 950.303 46.1663 945.783 59.7287 945.783C141.103 954.825 226.998 959.345 303.852 959.345C326.456 959.345 344.539 977.428 344.539 1000.03C344.539 1072.36 349.06 1144.7 353.58 1217.03C358.101 1266.76 394.268 1302.93 439.476 1302.93Z" fill="black"/>
<path fill-rule="evenodd" clip-rule="evenodd" d="M2066.98 954.848C2066.98 914.161 2039.85 882.516 2003.69 873.475L1755.04 810.184C1655.59 783.059 1587.77 701.684 1587.77 593.185C1587.77 538.935 1605.86 480.165 1646.54 439.478C1691.75 389.749 1750.52 371.666 1813.81 371.666H2170.96V511.811H1822.85C1777.65 511.811 1741.48 543.456 1741.48 588.664C1741.48 629.351 1764.08 656.476 1800.25 665.518L2044.37 728.809C2148.35 755.933 2216.16 841.828 2216.16 950.327C2216.16 1009.1 2198.08 1067.87 2157.39 1108.56C2112.19 1158.28 2053.42 1180.89 1985.6 1180.89H1614.9V1036.22H1981.08C2030.81 1036.22 2066.98 1000.06 2066.98 954.848Z" fill="black"/>
<path fill-rule="evenodd" clip-rule="evenodd" d="M4345.44 511.805V367.139H3744.17V511.805H3965.69V1180.88H4123.92V511.805H4345.44Z" fill="black"/>
<path fill-rule="evenodd" clip-rule="evenodd" d="M5010.03 1180.88V1040.74H4616.72V841.822H4955.78V701.677H4616.72V511.805H5010.03V367.139H4458.5V1180.88H5010.03Z" fill="black"/>
<path fill-rule="evenodd" clip-rule="evenodd" d="M2342.72 367.139H2500.95V706.198H2641.1L2799.32 367.139H2966.59L2808.36 706.198H2826.45C2862.61 706.198 2894.26 719.762 2916.86 742.365C2939.47 764.969 2953.03 796.615 2953.03 832.781V1176.36H2794.8V837.301H2500.95V1176.36H2342.72V367.139Z" fill="black"/>
<path fill-rule="evenodd" clip-rule="evenodd" d="M3409.66 606.742C3341.85 796.615 3278.56 991.008 3215.27 1180.88H3048L3341.85 367.139H3468.43L3766.8 1180.88H3599.53C3536.24 991.008 3477.47 796.615 3409.66 606.742Z" fill="black"/>
</svg>
